Coordinates
version=1
nRows=49
nColumns=12
inDegrees=yes

Units are S.I. units (second, meters, Newtons, ...)
Angles are in degrees

endheader
time	SC_y	SC_z	SC_x	AC_y	AC_z	AC_x	GH_y	GH_z	GH_yy	EL_x	PS_y
       0.0              -20.68          11.32          37.54          44.33         -10.44          18.39         -79.88          53.64          151.1          51.27          70.81
   0.01334              -20.68          11.33          37.55          44.33         -10.44          18.39         -79.87          53.63          151.1          51.28          70.82
   0.02669              -20.69          11.33          37.55          44.34         -10.44          18.39         -79.85          53.62          151.1          51.29          70.83
   0.04003              -20.69          11.33          37.56          44.34         -10.44          18.39         -79.84          53.61          151.1           51.3          70.83
   0.05338              -20.69          11.33          37.57          44.34         -10.44          18.39         -79.82          53.59          151.1          51.31          70.84
   0.06672              -20.69          11.34          37.57          44.34         -10.43          18.39         -79.81          53.58          151.1          51.33          70.85
   0.08007               -20.7          11.34          37.58          44.35         -10.43          18.39         -79.79          53.57          151.0          51.34          70.86
   0.09341               -20.7          11.34          37.59          44.35         -10.43          18.38         -79.77          53.55          151.0          51.36          70.87
    0.1068              -20.71          11.35           37.6          44.36         -10.43          18.38         -79.75          53.54          151.0          51.37          70.88
    0.1201              -20.71          11.35          37.61          44.36         -10.42          18.38         -79.73          53.52          151.0          51.39           70.9
    0.1334              -20.71          11.35          37.62          44.36         -10.42          18.38         -79.71           53.5          150.9          51.41          70.91
    0.1468              -20.72          11.36          37.63          44.37         -10.42          18.38         -79.69          53.48          150.9          51.43          70.92
    0.1601              -20.72          11.36          37.65          44.37         -10.41          18.38         -79.66          53.46          150.9          51.45          70.94
    0.1735              -20.73          11.37          37.66          44.38         -10.41          18.38         -79.63          53.44          150.9          51.47          70.96
    0.1868              -20.73          11.37          37.68          44.38         -10.41          18.37          -79.6          53.41          150.8           51.5          70.97
    0.2002              -20.74          11.38          37.69          44.39          -10.4          18.37         -79.57          53.38          150.8          51.53          70.99
    0.2135              -20.75          11.38          37.71           44.4          -10.4          18.37         -79.54          53.35          150.8          51.56          71.02
    0.2269              -20.76          11.39          37.73           44.4         -10.39          18.37          -79.5          53.32          150.7          51.59          71.04
    0.2402              -20.76           11.4          37.75          44.41         -10.39          18.36         -79.46          53.29          150.7          51.63          71.06
    0.2535              -20.77          11.41          37.77          44.42         -10.38          18.36         -79.41          53.25          150.6          51.67          71.09
    0.2669              -20.78          11.41           37.8          44.43         -10.37          18.36         -79.36          53.21          150.6          51.71          71.12
    0.2802              -20.79          11.42          37.82          44.44         -10.37          18.35          -79.3          53.16          150.5          51.76          71.16
    0.2936              -20.81          11.44          37.86          44.45         -10.36          18.35         -79.24          53.11          150.4          51.81          71.19
    0.3069              -20.82          11.45          37.89          44.47         -10.35          18.35         -79.17          53.05          150.4          51.87          71.23
    0.3203              -20.83          11.46          37.93          44.48         -10.34          18.34          -79.1          52.99          150.3          51.93          71.28
    0.3336              -20.85          11.48          37.97           44.5         -10.33          18.34         -79.01          52.92          150.2          52.01          71.33
     0.347              -20.87          11.49          38.02          44.52         -10.31          18.33         -78.92          52.84          150.1          52.09          71.39
    0.3603              -20.89          11.51          38.07          44.54          -10.3          18.32         -78.81          52.75          150.0          52.18          71.45
    0.3736              -20.91          11.53          38.13          44.56         -10.28          18.32         -78.69          52.65          149.8          52.28          71.52
     0.387              -20.94          11.55           38.2          44.59         -10.26          18.31         -78.55          52.54          149.7           52.4          71.61
    0.4003              -20.97          11.58          38.27          44.62         -10.24           18.3          -78.4          52.41          149.5          52.53           71.7
    0.4137               -21.0          11.61          38.36          44.65         -10.22          18.29         -78.22          52.26          149.3          52.69          71.81
     0.427              -21.05          11.65          38.46          44.69         -10.19          18.27         -78.01          52.08          149.1          52.86          71.93
    0.4404              -21.09          11.69          38.58          44.74         -10.16          18.26         -77.77          51.88          148.8          53.07          72.08
    0.4537              -21.15          11.74          38.72          44.79         -10.12          18.24         -77.49          51.65          148.5          53.31          72.25
    0.4671              -21.21           11.8          38.89          44.86         -10.07          18.22         -77.16          51.37          148.1          53.59          72.45
    0.4804              -21.29          11.87          39.08          44.93         -10.02          18.19         -76.76          51.04          147.7          53.93          72.68
    0.4938              -21.38          11.95          39.32          45.02         -9.953          18.16         -76.29          50.65          147.2          54.33          72.97
    0.5071              -21.49          12.05           39.6          45.13         -9.875          18.13         -75.72          50.17          146.6          54.82          73.31
    0.5204              -21.63          12.17          39.95          45.27         -9.779          18.08         -75.02          49.59          145.8          55.42          73.73
    0.5338               -21.8          12.32          40.37          45.43         -9.661          18.03         -74.16          48.87          144.8          56.16          74.25
    0.5471              -22.01          12.51          40.91          45.64         -9.514          17.96         -73.09          47.97          143.7          57.08           74.9
    0.5605              -22.27          12.74          41.58           45.9         -9.329          17.87         -71.73          46.84          142.2          58.23          75.71
    0.5738              -22.61          13.04          42.43          46.23         -9.093          17.77         -70.01          45.41          140.3           59.7          76.75
    0.5872              -23.03          13.42          43.52          46.66         -8.792          17.63         -67.81          43.57          137.9          61.59          78.08
    0.6005              -23.59          13.92          44.93           47.2         -8.404          17.45         -64.99          41.21          134.8          64.01          79.78
    0.6139              -24.29          14.54          46.72           47.9          -7.91          17.22         -61.38           38.2          130.8          67.09          81.95
    0.6272              -25.18          15.33          48.97          48.77         -7.288          16.93         -56.84          34.42          125.8          70.98          84.68
    0.6405              -26.25          16.29          51.71          49.84         -6.531          16.58         -51.31           29.8          119.7          75.71          88.01
